<mxfile host="app.diagrams.net" modified="2021-08-03T12:40:51.337Z" agent="5.0 (X11; Linux x86_64) AppleWebKit/537.36 (KHTML, like Gecko) Chrome/91.0.4472.124 Safari/537.36" etag="KfeO3Utu2WDGRDx1ZDEY" version="14.9.2" type="github" pages="2">
  <diagram id="VpCqlQhIF9ya1_VB9wXl" name="Page-1">
    <mxGraphModel dx="1422" dy="1635" grid="1" gridSize="10" guides="1" tooltips="1" connect="1" arrows="1" fold="1" page="1" pageScale="1" pageWidth="1169" pageHeight="827" math="0" shadow="0">
      <root>
        <mxCell id="0" />
        <mxCell id="1" parent="0" />
        <mxCell id="8UiX6jvRuvbvtcz3mI98-7" value="&lt;h1&gt;&lt;span&gt;Providers/Plugin&lt;/span&gt;&lt;/h1&gt;&lt;div&gt;&lt;span style=&quot;color: rgb(29 , 30 , 35) ; font-family: , &amp;#34;metro&amp;#34; , , &amp;#34;blinkmacsystemfont&amp;#34; , &amp;#34;segoe ui&amp;#34; , &amp;#34;roboto&amp;#34; , , &amp;#34;ubuntu&amp;#34; , &amp;#34;cantarell&amp;#34; , &amp;#34;helvetica neue&amp;#34; , sans-serif ; font-size: 17.008px ; letter-spacing: 0.17008px ; background-color: rgb(255 , 255 , 255)&quot;&gt;Each provider adds a set of&amp;nbsp;&lt;/span&gt;&lt;a href=&quot;https://www.terraform.io/docs/language/resources/index.html&quot; style=&quot;box-sizing: border-box ; background-color: rgb(255 , 255 , 255) ; color: rgb(128 , 64 , 201) ; font-family: , &amp;#34;metro&amp;#34; , , &amp;#34;blinkmacsystemfont&amp;#34; , &amp;#34;segoe ui&amp;#34; , &amp;#34;roboto&amp;#34; , , &amp;#34;ubuntu&amp;#34; , &amp;#34;cantarell&amp;#34; , &amp;#34;helvetica neue&amp;#34; , sans-serif ; font-size: 17.008px ; letter-spacing: 0.17008px&quot;&gt;resource types&lt;/a&gt;&lt;span style=&quot;color: rgb(29 , 30 , 35) ; font-family: , &amp;#34;metro&amp;#34; , , &amp;#34;blinkmacsystemfont&amp;#34; , &amp;#34;segoe ui&amp;#34; , &amp;#34;roboto&amp;#34; , , &amp;#34;ubuntu&amp;#34; , &amp;#34;cantarell&amp;#34; , &amp;#34;helvetica neue&amp;#34; , sans-serif ; font-size: 17.008px ; letter-spacing: 0.17008px ; background-color: rgb(255 , 255 , 255)&quot;&gt;&amp;nbsp;and/or&amp;nbsp;&lt;/span&gt;&lt;a href=&quot;https://www.terraform.io/docs/language/data-sources/index.html&quot; style=&quot;box-sizing: border-box ; background-color: rgb(255 , 255 , 255) ; color: rgb(128 , 64 , 201) ; font-family: , &amp;#34;metro&amp;#34; , , &amp;#34;blinkmacsystemfont&amp;#34; , &amp;#34;segoe ui&amp;#34; , &amp;#34;roboto&amp;#34; , , &amp;#34;ubuntu&amp;#34; , &amp;#34;cantarell&amp;#34; , &amp;#34;helvetica neue&amp;#34; , sans-serif ; font-size: 17.008px ; letter-spacing: 0.17008px&quot;&gt;data sources&lt;/a&gt;&lt;span style=&quot;color: rgb(29 , 30 , 35) ; font-family: , &amp;#34;metro&amp;#34; , , &amp;#34;blinkmacsystemfont&amp;#34; , &amp;#34;segoe ui&amp;#34; , &amp;#34;roboto&amp;#34; , , &amp;#34;ubuntu&amp;#34; , &amp;#34;cantarell&amp;#34; , &amp;#34;helvetica neue&amp;#34; , sans-serif ; font-size: 17.008px ; letter-spacing: 0.17008px ; background-color: rgb(255 , 255 , 255)&quot;&gt;&amp;nbsp;that Terraform can manage.&lt;/span&gt;&lt;span&gt;&lt;br&gt;&lt;/span&gt;&lt;/div&gt;" style="text;html=1;strokeColor=none;fillColor=none;spacing=5;spacingTop=-20;whiteSpace=wrap;overflow=hidden;rounded=0;labelBackgroundColor=none;labelBorderColor=#FF3333;" vertex="1" parent="1">
          <mxGeometry x="45" y="-700" width="290" height="140" as="geometry" />
        </mxCell>
        <mxCell id="8UiX6jvRuvbvtcz3mI98-9" value="" style="group" vertex="1" connectable="0" parent="1">
          <mxGeometry x="80" y="-620" width="230" height="165" as="geometry" />
        </mxCell>
        <mxCell id="8UiX6jvRuvbvtcz3mI98-3" value="" style="rounded=1;whiteSpace=wrap;html=1;labelBackgroundColor=#6666FF;" vertex="1" parent="8UiX6jvRuvbvtcz3mI98-9">
          <mxGeometry y="75" width="230" height="90" as="geometry" />
        </mxCell>
        <mxCell id="8UiX6jvRuvbvtcz3mI98-4" value="&lt;font style=&quot;font-size: 16px&quot;&gt;&lt;b&gt;PROVIDER&lt;/b&gt;&lt;/font&gt;" style="text;html=1;strokeColor=none;fillColor=none;align=center;verticalAlign=middle;whiteSpace=wrap;rounded=0;" vertex="1" parent="8UiX6jvRuvbvtcz3mI98-9">
          <mxGeometry x="55" y="110" width="120" height="20" as="geometry" />
        </mxCell>
        <mxCell id="8UiX6jvRuvbvtcz3mI98-6" value="" style="shadow=0;dashed=0;html=1;strokeColor=none;fillColor=#EF8F21;labelPosition=center;verticalLabelPosition=bottom;verticalAlign=top;align=center;outlineConnect=0;shape=mxgraph.veeam.vsphere;labelBackgroundColor=none;" vertex="1" parent="8UiX6jvRuvbvtcz3mI98-9">
          <mxGeometry x="20" y="97.6" width="44.8" height="44.8" as="geometry" />
        </mxCell>
        <mxCell id="8UiX6jvRuvbvtcz3mI98-15" value="" style="group" vertex="1" connectable="0" parent="1">
          <mxGeometry x="512" y="-720" width="145" height="460" as="geometry" />
        </mxCell>
        <mxCell id="8UiX6jvRuvbvtcz3mI98-11" value="" style="shape=ext;double=1;rounded=1;whiteSpace=wrap;html=1;" vertex="1" parent="8UiX6jvRuvbvtcz3mI98-15">
          <mxGeometry x="5" width="140" height="90" as="geometry" />
        </mxCell>
        <mxCell id="8UiX6jvRuvbvtcz3mI98-12" value="&lt;font face=&quot;helvetica&quot;&gt;&lt;span style=&quot;font-size: 18px&quot;&gt;&lt;b&gt;Cluster&lt;/b&gt;&lt;/span&gt;&lt;/font&gt;" style="shape=ext;double=1;rounded=1;whiteSpace=wrap;html=1;" vertex="1" parent="8UiX6jvRuvbvtcz3mI98-15">
          <mxGeometry y="130" width="140" height="90" as="geometry" />
        </mxCell>
        <mxCell id="8UiX6jvRuvbvtcz3mI98-13" value="&lt;b style=&quot;color: rgb(0 , 0 , 0) ; font-family: &amp;#34;helvetica&amp;#34; ; font-style: normal ; letter-spacing: normal ; text-align: center ; text-indent: 0px ; text-transform: none ; word-spacing: 0px ; background-color: rgb(248 , 249 , 250) ; font-size: 18px&quot;&gt;RP&lt;/b&gt;" style="shape=ext;double=1;rounded=1;whiteSpace=wrap;html=1;" vertex="1" parent="8UiX6jvRuvbvtcz3mI98-15">
          <mxGeometry y="250" width="140" height="90" as="geometry" />
        </mxCell>
        <mxCell id="8UiX6jvRuvbvtcz3mI98-14" value="&lt;font face=&quot;helvetica&quot;&gt;&lt;span style=&quot;font-size: 14px&quot;&gt;&lt;b&gt;DS&lt;br&gt;Network&lt;br&gt;RAM&lt;br&gt;CPU&lt;br&gt;&lt;/b&gt;&lt;/span&gt;&lt;/font&gt;" style="shape=ext;double=1;rounded=1;whiteSpace=wrap;html=1;" vertex="1" parent="8UiX6jvRuvbvtcz3mI98-15">
          <mxGeometry y="370" width="140" height="90" as="geometry" />
        </mxCell>
        <mxCell id="8UiX6jvRuvbvtcz3mI98-21" value="&lt;b style=&quot;font-size: 18px&quot;&gt;DC&lt;/b&gt;" style="text;html=1;strokeColor=none;fillColor=none;align=center;verticalAlign=middle;whiteSpace=wrap;rounded=0;labelBackgroundColor=none;" vertex="1" parent="8UiX6jvRuvbvtcz3mI98-15">
          <mxGeometry x="53" y="35" width="40" height="20" as="geometry" />
        </mxCell>
        <mxCell id="8UiX6jvRuvbvtcz3mI98-17" value="" style="shape=flexArrow;endArrow=classic;html=1;width=12;endSize=4.67;fillColor=#EA6B66;" edge="1" parent="1">
          <mxGeometry width="50" height="50" relative="1" as="geometry">
            <mxPoint x="330" y="-515" as="sourcePoint" />
            <mxPoint x="500" y="-670" as="targetPoint" />
          </mxGeometry>
        </mxCell>
        <mxCell id="8UiX6jvRuvbvtcz3mI98-18" value="" style="shape=flexArrow;endArrow=classic;html=1;width=12;endSize=4.67;fillColor=#EA6B66;" edge="1" parent="1">
          <mxGeometry width="50" height="50" relative="1" as="geometry">
            <mxPoint x="340" y="-500" as="sourcePoint" />
            <mxPoint x="500" y="-540" as="targetPoint" />
          </mxGeometry>
        </mxCell>
        <mxCell id="8UiX6jvRuvbvtcz3mI98-19" value="" style="shape=flexArrow;endArrow=classic;html=1;width=12;endSize=4.67;fillColor=#EA6B66;" edge="1" parent="1">
          <mxGeometry width="50" height="50" relative="1" as="geometry">
            <mxPoint x="340" y="-480" as="sourcePoint" />
            <mxPoint x="510" y="-440" as="targetPoint" />
          </mxGeometry>
        </mxCell>
        <mxCell id="8UiX6jvRuvbvtcz3mI98-20" value="" style="shape=flexArrow;endArrow=classic;html=1;width=12;endSize=4.67;fillColor=#EA6B66;" edge="1" parent="1">
          <mxGeometry width="50" height="50" relative="1" as="geometry">
            <mxPoint x="340" y="-455" as="sourcePoint" />
            <mxPoint x="500" y="-310" as="targetPoint" />
          </mxGeometry>
        </mxCell>
        <mxCell id="8UiX6jvRuvbvtcz3mI98-28" value="" style="verticalLabelPosition=bottom;html=1;verticalAlign=top;align=center;strokeColor=none;shape=mxgraph.azure.virtual_machine;labelBackgroundColor=none;fillColor=#EF8F21;" vertex="1" parent="1">
          <mxGeometry x="950" y="-555" width="80" height="70" as="geometry" />
        </mxCell>
        <mxCell id="8UiX6jvRuvbvtcz3mI98-29" value="" style="shape=image;html=1;verticalAlign=top;verticalLabelPosition=bottom;labelBackgroundColor=#ffffff;imageAspect=0;aspect=fixed;image=https://cdn4.iconfinder.com/data/icons/basic-user-interface-elements/700/copy-duplicate-multiply-clone-128.png" vertex="1" parent="1">
          <mxGeometry x="100" y="-390" width="30" height="30" as="geometry" />
        </mxCell>
        <mxCell id="8UiX6jvRuvbvtcz3mI98-30" value="&lt;b&gt;&lt;font style=&quot;font-size: 15px&quot;&gt;Base Template VM&lt;/font&gt;&lt;/b&gt;" style="text;html=1;strokeColor=none;fillColor=none;align=center;verticalAlign=middle;whiteSpace=wrap;rounded=0;labelBackgroundColor=none;" vertex="1" parent="1">
          <mxGeometry x="130" y="-300" width="150" height="20" as="geometry" />
        </mxCell>
        <mxCell id="8UiX6jvRuvbvtcz3mI98-37" value="" style="pointerEvents=1;shadow=0;dashed=0;html=1;strokeColor=none;fillColor=#005F4B;labelPosition=center;verticalLabelPosition=bottom;verticalAlign=top;align=center;outlineConnect=0;shape=mxgraph.veeam2.vcenter_server;labelBackgroundColor=none;" vertex="1" parent="1">
          <mxGeometry x="780" y="-570" width="90" height="120" as="geometry" />
        </mxCell>
        <mxCell id="8UiX6jvRuvbvtcz3mI98-38" value="" style="shape=ext;double=1;rounded=1;whiteSpace=wrap;html=1;" vertex="1" parent="1">
          <mxGeometry x="720" y="-730" width="10" height="480" as="geometry" />
        </mxCell>
        <mxCell id="8UiX6jvRuvbvtcz3mI98-39" value="" style="shape=flexArrow;endArrow=classic;html=1;width=12;endSize=4.67;fillColor=#EA6B66;" edge="1" parent="1">
          <mxGeometry width="50" height="50" relative="1" as="geometry">
            <mxPoint x="660" y="-670" as="sourcePoint" />
            <mxPoint x="710" y="-670" as="targetPoint" />
          </mxGeometry>
        </mxCell>
        <mxCell id="8UiX6jvRuvbvtcz3mI98-40" value="" style="shape=flexArrow;endArrow=classic;html=1;width=12;endSize=4.67;fillColor=#EA6B66;" edge="1" parent="1">
          <mxGeometry width="50" height="50" relative="1" as="geometry">
            <mxPoint x="657" y="-538" as="sourcePoint" />
            <mxPoint x="707" y="-538" as="targetPoint" />
          </mxGeometry>
        </mxCell>
        <mxCell id="8UiX6jvRuvbvtcz3mI98-41" value="" style="shape=flexArrow;endArrow=classic;html=1;width=12;endSize=4.67;fillColor=#EA6B66;" edge="1" parent="1">
          <mxGeometry width="50" height="50" relative="1" as="geometry">
            <mxPoint x="657" y="-420" as="sourcePoint" />
            <mxPoint x="707" y="-420" as="targetPoint" />
          </mxGeometry>
        </mxCell>
        <mxCell id="8UiX6jvRuvbvtcz3mI98-42" value="" style="shape=flexArrow;endArrow=classic;html=1;width=12;endSize=4.67;fillColor=#EA6B66;" edge="1" parent="1">
          <mxGeometry width="50" height="50" relative="1" as="geometry">
            <mxPoint x="657" y="-310" as="sourcePoint" />
            <mxPoint x="707" y="-310" as="targetPoint" />
          </mxGeometry>
        </mxCell>
        <mxCell id="8UiX6jvRuvbvtcz3mI98-43" value="" style="shape=flexArrow;endArrow=classic;html=1;width=12;endSize=4.67;fillColor=#EA6B66;" edge="1" parent="1">
          <mxGeometry width="50" height="50" relative="1" as="geometry">
            <mxPoint x="740" y="-520" as="sourcePoint" />
            <mxPoint x="790" y="-520" as="targetPoint" />
          </mxGeometry>
        </mxCell>
        <mxCell id="8UiX6jvRuvbvtcz3mI98-44" value="" style="verticalLabelPosition=bottom;html=1;verticalAlign=top;align=center;strokeColor=none;fillColor=#00BEF2;shape=mxgraph.azure.virtual_machine;labelBackgroundColor=none;" vertex="1" parent="1">
          <mxGeometry x="160" y="-380" width="80" height="70" as="geometry" />
        </mxCell>
        <mxCell id="8UiX6jvRuvbvtcz3mI98-45" value="&lt;b&gt;&lt;font style=&quot;font-size: 15px&quot;&gt;Cloned VM&lt;/font&gt;&lt;/b&gt;" style="text;html=1;strokeColor=none;fillColor=none;align=center;verticalAlign=middle;whiteSpace=wrap;rounded=0;labelBackgroundColor=none;" vertex="1" parent="1">
          <mxGeometry x="915" y="-470" width="150" height="20" as="geometry" />
        </mxCell>
        <mxCell id="8UiX6jvRuvbvtcz3mI98-46" value="" style="shape=flexArrow;endArrow=classic;html=1;width=12;endSize=4.67;fillColor=#EA6B66;" edge="1" parent="1">
          <mxGeometry width="50" height="50" relative="1" as="geometry">
            <mxPoint x="880" y="-515.5" as="sourcePoint" />
            <mxPoint x="930" y="-515.5" as="targetPoint" />
          </mxGeometry>
        </mxCell>
      </root>
    </mxGraphModel>
  </diagram>
  <diagram id="R1-0Cc4pnNZDyQnzWwY-" name="Page-2">
    <mxGraphModel dx="2591" dy="1635" grid="1" gridSize="10" guides="1" tooltips="1" connect="1" arrows="1" fold="1" page="1" pageScale="1" pageWidth="1169" pageHeight="827" math="0" shadow="0">
      <root>
        <mxCell id="Gk9YtL__2CpTsjmIRXQm-0" />
        <mxCell id="Gk9YtL__2CpTsjmIRXQm-1" parent="Gk9YtL__2CpTsjmIRXQm-0" />
        <mxCell id="utTLMbmGhNjbn-fRndf9-6" value="&lt;font style=&quot;font-size: 17px&quot;&gt;&lt;b&gt;Terraform Clone VM&lt;/b&gt;&lt;/font&gt;" style="shape=ext;double=1;rounded=1;whiteSpace=wrap;html=1;" vertex="1" parent="Gk9YtL__2CpTsjmIRXQm-1">
          <mxGeometry x="50" y="-720" width="230" height="130" as="geometry" />
        </mxCell>
        <mxCell id="utTLMbmGhNjbn-fRndf9-7" value="&lt;font style=&quot;font-size: 17px&quot;&gt;&lt;b&gt;Generate Inventory&lt;br&gt;&amp;nbsp;with IP&lt;/b&gt;&lt;/font&gt;" style="shape=ext;double=1;rounded=1;whiteSpace=wrap;html=1;" vertex="1" parent="Gk9YtL__2CpTsjmIRXQm-1">
          <mxGeometry x="370" y="-720" width="230" height="130" as="geometry" />
        </mxCell>
        <mxCell id="utTLMbmGhNjbn-fRndf9-8" value="&lt;span style=&quot;font-size: 17px&quot;&gt;&lt;b&gt;Invoke Ansible with Inventory file&lt;/b&gt;&lt;/span&gt;" style="shape=ext;double=1;rounded=1;whiteSpace=wrap;html=1;" vertex="1" parent="Gk9YtL__2CpTsjmIRXQm-1">
          <mxGeometry x="690" y="-720" width="230" height="130" as="geometry" />
        </mxCell>
        <mxCell id="utTLMbmGhNjbn-fRndf9-9" value="" style="shape=ext;double=1;rounded=1;whiteSpace=wrap;html=1;opacity=10;gradientColor=#ffffff;strokeWidth=5;" vertex="1" parent="Gk9YtL__2CpTsjmIRXQm-1">
          <mxGeometry x="-40" y="-780" width="1070" height="270" as="geometry" />
        </mxCell>
        <mxCell id="jACoeHQ18U2APqe1o4LC-0" value="" style="shape=flexArrow;endArrow=classic;html=1;width=12;endSize=4.67;fillColor=#EA6B66;" edge="1" parent="Gk9YtL__2CpTsjmIRXQm-1">
          <mxGeometry width="50" height="50" relative="1" as="geometry">
            <mxPoint x="300" y="-655.5" as="sourcePoint" />
            <mxPoint x="350" y="-655.5" as="targetPoint" />
          </mxGeometry>
        </mxCell>
        <mxCell id="jACoeHQ18U2APqe1o4LC-1" value="" style="shape=flexArrow;endArrow=classic;html=1;width=12;endSize=4.67;fillColor=#EA6B66;" edge="1" parent="Gk9YtL__2CpTsjmIRXQm-1">
          <mxGeometry width="50" height="50" relative="1" as="geometry">
            <mxPoint x="620" y="-655.5" as="sourcePoint" />
            <mxPoint x="670" y="-655.5" as="targetPoint" />
          </mxGeometry>
        </mxCell>
      </root>
    </mxGraphModel>
  </diagram>
</mxfile>
